HIERARCHY
ROOT Hips
{
 OFFSET 0.000000 0.000000 0.000000
 CHANNELS 6 Xposition Yposition Zposition Yrotation Xrotation Zrotation
 JOINT Chest
 {
  OFFSET 0.000000 9.585900 0.002600
  CHANNELS 3 Yrotation Xrotation Zrotation
  JOINT Chest2
  {
   OFFSET 0.000000 9.601200 -0.005300
   CHANNELS 3 Yrotation Xrotation Zrotation
   JOINT Chest3
   {
    OFFSET 0.000000 9.561800 0.000000
    CHANNELS 3 Yrotation Xrotation Zrotation
    JOINT Chest4
    {
     OFFSET 0.000000 9.552100 0.000000
     CHANNELS 3 Yrotation Xrotation Zrotation
     JOINT Neck
     {
      OFFSET 0.000000 14.453000 0.000000
      CHANNELS 3 Yrotation Xrotation Zrotation
      JOINT Head
      {
       OFFSET 0.000000 8.936500 -0.011300
       CHANNELS 3 Yrotation Xrotation Zrotation
       End Site
       {
        OFFSET 0.000000 17.073600 -0.006000
       }
      }
     }
     JOINT RightCollar
     {
      OFFSET -2.921100 9.558500 0.000000
      CHANNELS 3 Yrotation Xrotation Zrotation
      JOINT RightShoulder
      {
       OFFSET -13.519700 0.000000 0.000000
       CHANNELS 3 Yrotation Xrotation Zrotation
       JOINT RightElbow
       {
        OFFSET 0.000000 -29.696600 0.000000
        CHANNELS 3 Yrotation Xrotation Zrotation
        JOINT RightWrist
        {
         OFFSET 0.000000 -24.004700 0.000000
         CHANNELS 3 Yrotation Xrotation Zrotation
         End Site
         {
          OFFSET 0.000000 -17.728500 0.000000
         }
        }
       }
      }
     }
     JOINT LeftCollar
     {
      OFFSET 2.921100 9.558500 0.000000
      CHANNELS 3 Yrotation Xrotation Zrotation
      JOINT LeftShoulder
      {
       OFFSET 13.519700 0.000000 0.000000
       CHANNELS 3 Yrotation Xrotation Zrotation
       JOINT LeftElbow
       {
        OFFSET 0.000000 -29.696600 0.000000
        CHANNELS 3 Yrotation Xrotation Zrotation
        JOINT LeftWrist
        {
         OFFSET 0.000000 -24.004700 0.000000
         CHANNELS 3 Yrotation Xrotation Zrotation
         End Site
         {
          OFFSET 0.000000 -17.728500 0.000000
         }
        }
       }
      }
     }
    }
   }
  }
 }
 JOINT RightHip
 {
  OFFSET -7.771700 -0.012900 -0.001300
  CHANNELS 3 Yrotation Xrotation Zrotation
  JOINT RightKnee
  {
   OFFSET 0.000000 -40.869800 0.001200
   CHANNELS 3 Yrotation Xrotation Zrotation
   JOINT RightAnkle
   {
    OFFSET 0.000000 -39.717900 0.002100
    CHANNELS 3 Yrotation Xrotation Zrotation
    JOINT RightToe
    {
     OFFSET 0.000000 -4.965400 11.033500
     CHANNELS 3 Yrotation Xrotation Zrotation
     End Site
     {
      OFFSET 0.000000 -1.423100 5.872300
     }
    }
   }
  }
 }
 JOINT LeftHip
 {
  OFFSET 7.771700 -0.012900 -0.001300
  CHANNELS 3 Yrotation Xrotation Zrotation
  JOINT LeftKnee
  {
   OFFSET 0.000000 -40.869800 0.001200
   CHANNELS 3 Yrotation Xrotation Zrotation
   JOINT LeftAnkle
   {
    OFFSET 0.000000 -39.717900 0.002100
    CHANNELS 3 Yrotation Xrotation Zrotation
    JOINT LeftToe
    {
     OFFSET 0.000000 -4.965400 11.033500
     CHANNELS 3 Yrotation Xrotation Zrotation
     End Site
     {
      OFFSET 0.000000 -1.423100 5.872300
     }
    }
   }
  }
 }
}
MOTION
Frames: 16
Frame Time: 0.008333
0.000000 85.388000 0.000000 0.000000 -5.767877 0.000000 0.000000 11.653817 0.000000 0.000000 -5.885947 0.000000 0.000000 -0.000000 0.000000 0.000000 -0.000000 0.000000 0.000000 12.528835 0.000000 0.000000 0.711642 0.000000 0.000000 -0.000000 0.000000 0.000000 0.000000 -90.000000 0.000000 -2.309062 0.000000 0.000000 2.309062 0.000000 0.000000 -0.000000 0.000000 0.000000 -0.000000 90.000000 0.000000 -2.309062 0.000000 0.000000 2.309062 0.000000 0.000000 8.520406 0.000000 0.000000 1.905762 0.000000 -0.000000 -4.658285 0.000000 0.000000 -0.000000 0.000000 0.000000 8.520406 0.000000 0.000000 1.905762 0.000000 -0.000000 -4.658285 0.000000 0.000000 -0.000000 0.000000
-2.436363 52.135990 34.905746 171.127809 -39.260132 -2.185825 4.096816 23.336105 2.120356 0.495727 3.484317 0.384110 0.818194 5.591279 0.660676 3.218028 19.507805 2.696797 -0.615166 14.938995 -1.376215 -0.633550 -8.059488 -2.342137 -5.241358 -0.557594 -2.473223 -4.483678 -3.281040 2.434289 -85.017392 -44.364459 112.232292 14.984211 15.857300 76.190978 -5.975961 1.552955 -0.132973 12.016178 -7.273139 2.537556 71.957211 -25.363882 -119.270498 -5.446248 20.668528 -67.442806 -3.623060 -42.176868 2.528399 -148.892024 86.266345 -144.226260 1.028790 -10.878487 -2.926006 0.356241 -0.679803 0.152832 -0.702476 -38.477877 6.164025 72.271106 83.012331 62.056103 -5.517208 -12.658655 9.094323 0.504571 1.674839 0.236074
-2.436258 52.135164 34.906593 171.127903 -39.260613 -2.194466 4.096886 23.345290 2.111567 0.497695 3.481199 0.391629 0.819125 5.597321 0.659133 3.222209 19.499683 2.703783 -0.576506 14.969317 -1.355711 -0.558714 -8.021544 -2.306380 -5.244028 -0.542153 -2.475066 -4.535510 -3.291397 2.444590 -84.598177 -43.524524 112.118261 14.383379 15.757294 75.958707 -5.972879 1.568886 -0.140283 12.091773 -7.277117 2.449438 71.865375 -24.981977 -119.367018 -4.596094 20.466427 -66.609960 -3.633175 -42.178147 2.542439 -148.821939 86.261958 -144.158899 1.034506 -10.871215 -2.922969 0.354674 -0.684565 0.151321 -0.699648 -38.481649 6.174210 72.297560 83.016554 62.088103 -5.526422 -12.654324 9.095771 0.510960 1.670531 0.237208
-2.436398 52.134957 34.906637 171.123693 -39.268291 -2.198703 4.102702 23.353470 2.117098 0.497065 3.483113 0.387517 0.814285 5.609381 0.646331 3.229002 19.500103 2.710102 -0.548362 14.970687 -1.335892 -0.465241 -7.954790 -2.261549 -5.242700 -0.540909 -2.468313 -4.557707 -3.303853 2.452566 -84.252431 -42.735083 112.029375 13.785862 15.652302 75.676479 -5.965317 1.571921 -0.136590 12.156658 -7.286942 2.364237 71.813265 -24.673459 -119.448664 -3.779847 20.260138 -65.788889 -3.636961 -42.170219 2.549273 -148.831299 86.264268 -144.167565 1.038804 -10.869120 -2.921971 0.351004 -0.683863 0.149603 -0.698642 -38.474940 6.183401 72.348941 83.012719 62.137111 -5.528900 -12.656017 9.102785 0.504423 1.669034 0.232696
-2.437370 52.134214 34.907227 171.119320 -39.271816 -2.198281 4.106276 23.358024 2.111985 0.498190 3.482457 0.393029 0.810807 5.613246 0.637173 3.223809 19.510263 2.696215 -0.483265 15.004402 -1.289654 -0.395708 -7.904899 -2.219015 -5.234186 -0.543490 -2.451192 -4.579958 -3.310464 2.459388 -83.951101 -41.996108 111.963329 13.194929 15.536484 75.346941 -5.952259 1.567972 -0.117598 12.228401 -7.289274 2.262640 71.773315 -24.445658 -119.511750 -2.985171 20.037359 -64.958373 -3.641434 -42.168691 2.555132 -148.782646 86.261012 -144.122932 1.042435 -10.865988 -2.921051 0.347577 -0.683291 0.151376 -0.694423 -38.472622 6.185252 72.403649 83.004279 62.190652 -5.535375 -12.656915 9.109163 0.499922 1.668341 0.228162
-2.437896 52.133609 34.907851 171.119497 -39.276595 -2.202703 4.104363 23.362051 2.106193 0.498265 3.484151 0.392116 0.812838 5.617648 0.635291 3.221814 19.515861 2.687322 -0.420187 15.047333 -1.245016 -0.322866 -7.849066 -2.172525 -5.232084 -0.542281 -2.437538 -4.625284 -3.321601 2.468242 -83.653825 -41.307320 111.905061 12.607681 15.402898 74.976112 -5.943962 1.566600 -0.101152 12.275560 -7.296787 2.196236 71.769068 -24.247896 -119.567612 -2.189016 19.789407 -64.097910 -3.648298 -42.165124 2.564177 -148.690230 86.255944 -144.034226 1.046911 -10.863240 -2.920353 0.346067 -0.684238 0.152927 -0.689961 -38.469996 6.189037 72.435696 83.000221 62.227270 -5.548112 -12.655228 9.111951 0.505488 1.667367 0.228068
-2.438015 52.132666 34.909173 171.118425 -39.277656 -2.208361 4.104700 23.364930 2.101112 0.498716 3.485325 0.391165 0.816403 5.617454 0.640985 3.222367 19.517413 2.685676 -0.370595 15.091270 -1.212678 -0.240182 -7.777630 -2.120527 -5.240969 -0.534592 -2.436738 -4.727634 -3.356223 2.474783 -83.299736 -40.656068 111.823018 12.022968 15.256862 74.579023 -5.943480 1.578934 -0.099226 12.313358 -7.315950 2.146472 71.776094 -24.086250 -119.615208 -1.386338 19.510833 -63.198268 -3.660261 -42.164650 2.576411 -148.687086 86.256940 -144.033361 1.044018 -10.861244 -2.924751 0.347253 -0.683764 0.155334 -0.686791 -38.468829 6.196300 72.442023 82.997016 62.237061 -5.557074 -12.662558 9.111434 0.521710 1.672819 0.232106
-2.436114 52.131743 34.911131 171.121448 -39.277557 -2.228029 4.111302 23.367913 2.110974 0.498982 3.486769 0.390982 0.816766 5.615568 0.645806 3.222631 19.519106 2.684706 -0.318603 15.136684 -1.178286 -0.156699 -7.699318 -2.063847 -5.244947 -0.536000 -2.433713 -4.782380 -3.376662 2.479585 -83.020446 -40.048965 111.753141 11.454603 15.113473 74.173581 -5.950479 1.601890 -0.111230 12.335811 -7.349169 2.136693 71.804398 -23.937832 -119.659150 -0.582876 19.192346 -62.260975 -3.683279 -42.163253 2.600120 -148.646855 86.259358 -143.990159 1.049921 -10.853830 -2.931300 0.344352 -0.686902 0.155359 -0.694506 -38.469349 6.223812 72.426438 83.003700 62.224894 -5.568408 -12.671881 9.110045 0.531277 1.682304 0.238775
-2.434895 52.131757 34.911945 171.123630 -39.286213 -2.241074 4.117355 23.376559 2.104896 0.500799 3.488853 0.387584 0.818858 5.620000 0.645723 3.229015 19.520665 2.699806 -0.264751 15.178066 -1.138093 -0.070560 -7.613353 -2.001422 -5.250497 -0.542149 -2.426905 -4.835980 -3.398805 2.487324 -82.748844 -39.471320 111.677049 10.915751 14.981159 73.765075 -5.952028 1.598148 -0.104926 12.348886 -7.359379 2.122435 71.812074 -23.877966 -119.673077 0.261786 18.781782 -61.291497 -3.693250 -42.152838 2.611938 -148.658203 86.261652 -143.997419 1.053257 -10.850565 -2.932570 0.340149 -0.687930 0.153464 -0.701314 -38.462098 6.242285 72.438410 83.008258 62.237828 -5.572973 -12.672951 9.110609 0.535534 1.681770 0.240943
-2.433468 52.131304 34.913516 171.127764 -39.290131 -2.256469 4.123068 23.376631 2.105201 0.500791 3.491177 0.390614 0.819661 5.622168 0.645139 3.231985 19.522321 2.697797 -0.206501 15.228928 -1.090531 0.021720 -7.521179 -1.934232 -5.276167 -0.534891 -2.434805 -4.853386 -3.423095 2.515659 -82.509229 -38.924491 111.608436 10.403273 14.861655 73.354424 -5.952599 1.601473 -0.092939 12.327976 -7.387387 2.087163 71.872998 -23.781462 -119.676057 1.068186 18.401621 -60.257242 -3.705827 -42.147934 2.625856 -148.596780 86.263499 -143.930114 1.056881 -10.843942 -2.934339 0.341384 -0.691362 0.151205 -0.709858 -38.459660 6.259731 72.498912 82.996113 62.301712 -5.592311 -12.675124 9.108120 0.545112 1.683167 0.245279
-2.433689 52.130554 34.915128 171.136069 -39.291780 -2.264238 4.119071 23.377733 2.102867 0.501077 3.491886 0.390376 0.820767 5.624163 0.641267 3.231535 19.532816 2.674519 -0.137120 15.275098 -1.023412 0.120937 -7.424074 -1.861261 -5.287848 -0.538101 -2.412181 -4.876829 -3.453189 2.528420 -82.290640 -38.410828 111.539674 9.908607 14.753783 72.942959 -5.954730 1.608229 -0.068836 12.290336 -7.416501 2.092279 71.954387 -23.690416 -119.686061 1.905790 17.986817 -59.171489 -3.712286 -42.145902 2.627634 -148.585041 86.263742 -143.916511 1.057672 -10.844091 -2.934470 0.340808 -0.689818 0.151247 -0.713315 -38.460260 6.263358 72.511912 82.992873 62.313494 -5.593299 -12.670381 9.115189 0.539495 1.679693 0.242577
-2.433591 52.129805 34.916744 171.139260 -39.294047 -2.270318 4.120288 23.379619 2.102141 0.501438 3.492580 0.390075 0.821120 5.626968 0.633156 3.234213 19.534573 2.674815 -0.072727 15.330508 -0.972689 0.224215 -7.323587 -1.781785 -5.293329 -0.539173 -2.403079 -4.909397 -3.488727 2.529725 -82.096639 -37.933720 111.471322 9.423789 14.646795 72.528713 -5.960619 1.621804 -0.058204 12.239229 -7.445310 2.101111 72.020313 -23.654590 -119.678841 2.799360 17.514134 -58.041346 -3.717430 -42.143832 2.631361 -148.583148 86.265201 -143.911805 1.057881 -10.842773 -2.937789 0.342527 -0.688806 0.152990 -0.713852 -38.460296 6.267100 72.522006 82.991815 62.326391 -5.595757 -12.667901 9.119017 0.538652 1.678292 0.240148
-2.433927 52.129306 34.917808 171.140869 -39.299638 -2.272214 4.122822 23.384820 2.092952 0.501729 3.494100 0.389152 0.820434 5.628704 0.631034 3.238560 19.532504 2.685332 -0.011710 15.388938 -0.929474 0.329009 -7.223260 -1.698046 -5.298106 -0.536970 -2.404367 -4.940494 -3.519932 2.526131 -81.943040 -37.497639 111.420571 8.948033 14.528372 72.107487 -5.972039 1.630681 -0.057945 12.201396 -7.463866 2.112811 72.044623 -23.560314 -119.650359 3.644737 17.047974 -56.891188 -3.712073 -42.138790 2.626238 -148.647101 86.268750 -143.969107 1.054895 -10.844210 -2.939608 0.343713 -0.686863 0.153116 -0.711079 -38.456000 6.266513 72.525292 82.991245 62.332666 -5.598439 -12.666385 9.119369 0.534873 1.676986 0.240903
-2.433644 52.128815 34.918791 171.140959 -39.306222 -2.276807 4.124873 23.390750 2.084004 0.502520 3.494487 0.374791 0.823345 5.628773 0.655890 3.236183 19.537828 2.670186 0.056586 15.440578 -0.871079 0.434259 -7.126811 -1.612059 -5.308467 -0.536107 -2.401658 -4.948528 -3.538135 2.536382 -81.839950 -37.111076 111.399298 8.483944 14.396789 71.670130 -5.974363 1.637383 -0.047956 12.190279 -7.478780 2.122133 71.996691 -23.453328 -119.604026 4.466802 16.563297 -55.741594 -3.711022 -42.132868 2.629908 -148.639894 86.268331 -143.958275 1.054755 -10.843187 -2.942769 0.344654 -0.686927 0.155785 -0.711826 -38.450229 6.272222 72.540497 82.989170 62.348983 -5.601267 -12.667742 9.121051 0.532983 1.677788 0.239860
-2.432337 52.128854 34.919148 171.135491 -39.318618 -2.283598 4.133394 23.400657 2.081422 0.504883 3.495274 0.382879 0.822039 5.631648 0.645588 3.236281 19.546334 2.649176 0.134210 15.483443 -0.791122 0.539382 -7.035874 -1.524941 -5.312667 -0.535034 -2.382704 -4.962493 -3.559548 2.548770 -81.751866 -36.764588 111.387171 8.025975 14.256222 71.203745 -5.973957 1.639289 -0.013996 12.054414 -7.510752 2.170122 72.050506 -23.318239 -119.531768 5.282638 16.067622 -54.605696 -3.709106 -42.118261 2.635141 -148.686049 86.273902 -143.997066 1.061894 -10.844728 -2.944094 0.337944 -0.683338 0.152208 -0.714446 -38.438404 6.285156 72.559315 82.991244 62.369050 -5.593738 -12.671870 9.120552 0.527096 1.678220 0.238582
-2.430228 52.129676 34.918543 171.140041 -39.338771 -2.300893 4.141869 23.415411 2.091352 0.503009 3.498235 0.387137 0.823080 5.632977 0.639544 3.236719 19.548333 2.653024 0.200108 15.531891 -0.737950 0.645092 -6.950014 -1.438849 -5.320421 -0.528947 -2.390876 -5.057008 -3.605358 2.540523 -81.581463 -36.428955 111.346081 7.568021 14.111886 70.699350 -5.981747 1.647149 -0.013189 11.955625 -7.539203 2.210683 72.060866 -23.181478 -119.450359 6.069694 15.577368 -53.498057 -3.724541 -42.093864 2.650784 -148.718289 86.279538 -144.027131 1.067919 -10.841949 -2.945971 0.332143 -0.685317 0.149567 -0.728029 -38.420427 6.307294 72.588831 83.000292 62.397286 -5.583976 -12.671361 9.121570 0.527762 1.672351 0.238511
